# xmcd
#
# Track frame offsets: 
#        150
#        12785
#        26402
#        38705
#        47532
#        60780
#        71910
#        83675
#        95325
#        107100
#        119472
#        129805
#        142692
#        156807
#        168755
#        184360
#        196810
#        207857
#        217642
#        230152
#        245562
#        255177
#        270327
#        284345
#
# Disc length: 3928 seconds
#
# Revision: 0
# Processed by: cddbd v1.4PL0 Copyright (c) Steve Scherf et al.
# Submitted via: ExactAudioCopy v0.90a11
#
DISCID=330f5618
DTITLE=Sonny Boy Williamson - The Real Folk Blues - More Real Folk Blu
DTITLE=es
DYEAR=1900
DGENRE=
TTITLE0=One Way Out
TTITLE1=Too Young To Die
TTITLE2=Trust My Baby
TTITLE3=Checkin' Up On My Baby
TTITLE4=Sad To Be Alone
TTITLE5=Got To Move
TTITLE6=Bring It On Home
TTITLE7=Down Child
TTITLE8=Peach Tree
TTITLE9=Dissatisfied
TTITLE10=That's All I Want
TTITLE11=Too Old To Think
TTITLE12=Help Me
TTITLE13=Bye Bye Bird
TTITLE14=Nine Below Zero
TTITLE15=The Hunt
TTITLE16=Stop Right Now
TTITLE17=She's My Baby
TTITLE18=The Goat
TTITLE19=Decoration Day
TTITLE20=Trying To Get Back On My Feet
TTITLE21=My Younger Days
TTITLE22=Close To Me
TTITLE23=Somebody Help Me
EXTD=
EXTT0=
EXTT1=
EXTT2=
EXTT3=
EXTT4=
EXTT5=
EXTT6=
EXTT7=
EXTT8=
EXTT9=
EXTT10=
EXTT11=
EXTT12=
EXTT13=
EXTT14=
EXTT15=
EXTT16=
EXTT17=
EXTT18=
EXTT19=
EXTT20=
EXTT21=
EXTT22=
EXTT23=
PLAYORDER=
